<svg xmlns="http://www.w3.org/2000/svg" width="40" height="30" viewBox="0 0 40 30"><g transform="translate(0 -5.249)"><path d="M40,26.429v-.5h-.126l-5.2-20.68H5.328l-5.2,20.68H0v1H0v8.318H40V26.43ZM6.108,6.251H33.892l4.951,19.678H1.157Zm11.966,20.68h3.853v.352a1.927,1.927,0,0,1-3.853,0ZM1,34.247V26.931H17.074v.352a2.927,2.927,0,0,0,5.853,0v-.352H39v7.316Z" fill="#fff"></path><path d="M17.878,13.633V10.365H15.733V8.549a.5.5,0,1,0-1,0v1.816H12.587v3.268h2.146V23.17a.5.5,0,1,0,1,0V13.633Zm-4.291-2.266h3.291v1.264H13.587Z" fill="#fff"></path><path d="M20.5,8.549a.5.5,0,1,0-1,0V18.724H17.355v3.267H19.5V23.17a.5.5,0,1,0,1,0V21.991h2.145V18.724H20.5Zm1.145,12.44h-3.29V19.726h3.29Z" fill="#fff"></path><path d="M25.267,8.549a.5.5,0,1,0-1,0v5.376H22.122v3.267h2.145V23.17a.5.5,0,1,0,1,0V17.192h2.145V13.925H25.267Zm1.145,7.641h-3.29V14.927h3.29Z" fill="#fff"></path></g></svg>