<svg xmlns="http://www.w3.org/2000/svg" xmlns:xlink="http://www.w3.org/1999/xlink" width="31.593" height="38.672" viewBox="0 0 31.593 38.672"><defs><clipPath id="a"><path d="M0,0H23.2V21.829L11.582,23.85l.48-1.875h-2.2L9.247,23.85,0,21.829Z" fill="#faf5f3"/></clipPath><linearGradient id="b" x1="0.5" x2="0.5" y2="1" gradientUnits="objectBoundingBox"><stop offset="0" stop-color="#f78bc1"/><stop offset="1" stop-color="#756ecd"/></linearGradient><clipPath id="c"><path d="M.175-1.972H9.6L9.088.269h2.655l.634-2.241H21l.065,28.029H0Z" transform="translate(0 1.972)" fill="#faf5f3"/></clipPath></defs><g transform="translate(13973 10759.787)"><g transform="translate(-13964.608 -10759.787)" clip-path="url(#a)"><g transform="translate(1.512 1.943)"><path d="M2.541,18.79A8.676,8.676,0,0,1,14.34,6.084l3.181-3.17L15.561.953A.4.4,0,0,1,15.47.528a.4.4,0,0,1,.354-.256L20.582,0a.412.412,0,0,1,.306.115A.422.422,0,0,1,21,.422l-.269,4.759a.4.4,0,0,1-.259.352.376.376,0,0,1-.141.028.413.413,0,0,1-.284-.118L18.09,3.478,14.922,6.636A8.675,8.675,0,0,1,2.541,18.79ZM.8,12.656A7.876,7.876,0,1,0,8.676,4.781,7.888,7.888,0,0,0,.8,12.656ZM16.76,1.019l3.224,3.225L20.176.828Z" transform="translate(0 0)" fill="url(#b)"/></g></g><g transform="translate(-13973 -10749.145)" clip-path="url(#c)"><g transform="translate(2.433 0.575)"><g transform="translate(0 0)"><path d="M8.362,26.405V23.288H5.625v-.81H8.362v-4.95A8.773,8.773,0,0,1,0,8.769a8.77,8.77,0,0,1,14.971-6.2,8.772,8.772,0,0,1-5.8,14.962v4.949h2.739v.81H9.172v3.117ZM.811,8.769A7.958,7.958,0,1,0,8.769.808,7.967,7.967,0,0,0,.811,8.769Z" transform="translate(0 0)" fill="url(#b)"/></g></g></g></g></svg>